<svg xmlns="http://www.w3.org/2000/svg" version="1.2" viewBox="302 424 163 81"><defs><filter x="-50%" y="-50%" width="200%" height="200%" id="f1"> <feGaussianBlur stdDeviation="NaN"/> </filter></defs><style>.a{filter:url(#f1);fill:#fff;stroke:#000;stroke-miterlimit:10}.b{fill:#fff}</style><path fill-rule="evenodd" class="a" d="mNaNNaNcNaNNaNNaNNaNNaNNaN"/><path fill-rule="evenodd" class="b" d="m383 505c-22.4 0-40.5-18.1-40.5-40.5 0-22.4 18.1-40.5 40.5-40.5 22.4 0 40.5 18.1 40.5 40.5 0 22.4-18.1 40.5-40.5 40.5z"/><path fill-rule="evenodd" class="b" d="m302 505c0 0 40.5 0 40.5-39.5 0-39.6 77.2 36.1 75.2 39.4"/><path fill-rule="evenodd" class="b" d="m464.7 504.9c0 0-41.2-0.1-41.2-39.6 0-39.6-76.5 36.3-74.5 39.5"/><path fill-rule="evenodd" class="b" d="m384 505h81z"/><path fill-rule="evenodd" class="b" d="m302 505h82"/></svg>